<mxfile host="app.diagrams.net" modified="2023-08-13T16:01:59.472Z" agent="Mozilla/5.0 (Windows NT 10.0; Win64; x64) AppleWebKit/537.36 (KHTML, like Gecko) Chrome/115.0.0.0 Safari/537.36" version="21.6.8" etag="Bo4dviwRMS4G7mWSRPhA" type="github">
  <diagram name="Страница — 1" id="ljk-BRXv8saYAjU8Xl_7">
    <mxGraphModel>
      <root>
        <mxCell id="0" />
        <mxCell id="1" parent="0" />
      </root>
    </mxGraphModel>
  </diagram>
</mxfile>
